<?xml version="1.0" encoding="UTF-8"?>
<svg xmlns="http://www.w3.org/2000/svg" xmlns:xlink="http://www.w3.org/1999/xlink" width="23px" height="24px" viewBox="0 0 23 23" version="1.1">
<defs>
<clipPath id="clip1">
  <path d="M 0 0 L 23 0 L 23 22.960938 L 0 22.960938 Z M 0 0 "/>
</clipPath>
</defs>
<g id="surface1">
<g clip-path="url(#clip1)" clip-rule="nonzero">
<path style=" stroke:none;fill-rule:nonzero;fill:rgb(47.058824%,29.019609%,17.254902%);fill-opacity:1;" d="M 23.03125 3.457031 L 23.03125 2.589844 L 20.382812 2.589844 L 20.382812 0.015625 L 19.476562 0.015625 L 19.476562 2.589844 L 7.109375 2.589844 L 7.109375 0.015625 L 6.164062 0.015625 L 6.164062 2.589844 L 3.519531 2.589844 L 3.519531 0.015625 L 2.613281 0.015625 L 2.613281 2.589844 L 0 2.589844 L 0 3.457031 L 2.613281 3.457031 L 2.613281 6.03125 L 0 6.03125 L 0 6.902344 L 2.613281 6.902344 L 2.613281 19.464844 L 0 19.464844 L 0 20.335938 L 2.613281 20.335938 L 2.613281 22.910156 L 3.519531 22.910156 L 3.519531 20.335938 L 15.992188 20.335938 L 15.992188 22.910156 L 16.898438 22.910156 L 16.898438 20.335938 L 20.382812 20.335938 L 20.382812 19.464844 L 16.898438 19.464844 L 16.898438 16.894531 L 20.382812 16.894531 L 20.382812 3.457031 L 23.03125 3.457031 M 6.164062 19.5 L 3.519531 19.5 L 3.519531 16.925781 L 6.164062 16.925781 Z M 6.164062 16.023438 L 3.519531 16.023438 L 3.519531 6.933594 L 6.164062 6.933594 Z M 6.164062 6.03125 L 3.519531 6.03125 L 3.519531 3.457031 L 6.164062 3.457031 Z M 7.105469 3.460938 L 15.992188 3.460938 L 15.992188 6.03125 L 7.109375 6.03125 Z M 7.105469 6.933594 L 15.992188 6.933594 L 15.992188 16.023438 L 7.109375 16.023438 Z M 15.328125 19.5 L 7.105469 19.5 L 7.105469 16.925781 L 15.992188 16.925781 L 15.992188 19.5 Z M 19.476562 16.023438 L 16.933594 16.023438 L 16.933594 6.933594 L 19.476562 6.933594 Z M 19.476562 6.03125 L 16.933594 6.03125 L 16.933594 3.457031 L 19.476562 3.457031 Z M 19.476562 6.03125 "/>
</g>
</g>
</svg>
