<svg id="Grupo_524" data-name="Grupo 524" xmlns="http://www.w3.org/2000/svg" xmlns:xlink="http://www.w3.org/1999/xlink" width="191.956" height="48.913" viewBox="0 0 191.956 48.913">
  <defs>
    <clipPath id="clip-path">
      <rect id="Rectángulo_154" data-name="Rectángulo 154" width="191.956" height="48.913" fill="none"/>
    </clipPath>
  </defs>
  <g id="Grupo_524-2" data-name="Grupo 524" clip-path="url(#clip-path)">
    <path id="Trazado_1167" data-name="Trazado 1167" d="M494.413,84.552a2.079,2.079,0,0,1,.791.792,2.446,2.446,0,0,1,0,2.3,3.067,3.067,0,0,1-.791.863,2.446,2.446,0,0,1-2.3,0,2.077,2.077,0,0,1-.791-.792,2.446,2.446,0,0,1,0-2.3,2.083,2.083,0,0,1,.791-.792,2.113,2.113,0,0,1,1.151-.288,1.532,1.532,0,0,1,1.152.216m-.144,3.742a2.291,2.291,0,0,0,.719-.719,2.343,2.343,0,0,0,.288-1.008,1.653,1.653,0,0,0-.288-1.007,3.418,3.418,0,0,0-.719-.719,2.342,2.342,0,0,0-1.008-.288,1.653,1.653,0,0,0-1.007.288,1.737,1.737,0,0,0-.719.719,2.342,2.342,0,0,0-.288,1.007,1.653,1.653,0,0,0,.288,1.008,1.737,1.737,0,0,0,.719.719,2.342,2.342,0,0,0,1.007.288,4.132,4.132,0,0,0,1.008-.288m0-1.655a.663.663,0,0,1-.432.288l.576.935h-.432l-.5-.791h-.72v.791h-.432v-2.59h1.007a1.451,1.451,0,0,1,.792.216.7.7,0,0,1,.288.648.607.607,0,0,1-.144.5m-.432-.144c.144-.072.144-.216.144-.36a.55.55,0,0,0-.144-.36,1.038,1.038,0,0,0-.5-.144h-.576v1.007h.576a1.042,1.042,0,0,0,.5-.144" transform="translate(-303.536 -52.117)" fill="#784a2c"/>
    <path id="Trazado_1168" data-name="Trazado 1168" d="M158.042,109.64h.8l3.2,6.9h-.872l-.654-1.308H156.3l-.654,1.308h-.872Zm2.252,4.868-1.235-2.689c-.218-.509-.509-1.162-.509-1.235-.073.073-.291.727-.509,1.235l-1.235,2.689Z" transform="translate(-95.674 -67.775)" fill="#784a2c"/>
    <path id="Trazado_1169" data-name="Trazado 1169" d="M179.319,109.64h2.834a2.667,2.667,0,0,1,2.979,2.616,2.331,2.331,0,0,1-1.6,2.252l1.6,2.034h-1.017l-1.38-1.744c-.145,0-.436.073-.654.073h-1.889v1.744h-.872Zm2.907,4.432a1.837,1.837,0,0,0,1.962-1.816,1.894,1.894,0,0,0-1.962-1.889h-2.034v3.706Z" transform="translate(-110.848 -67.775)" fill="#784a2c"/>
    <path id="Trazado_1170" data-name="Trazado 1170" d="M201.272,110.557h-2.543v-.727h5.958v.727h-2.543v6.1h-.872Z" transform="translate(-122.846 -67.893)" fill="#784a2c"/>
    <path id="Trazado_1171" data-name="Trazado 1171" d="M220.041,109.64h5.232v.727h-4.36v2.107h4.069v.727h-4.069v2.543h4.5v.727h-5.377Z" transform="translate(-136.021 -67.775)" fill="#784a2c"/>
    <path id="Trazado_1172" data-name="Trazado 1172" d="M249.155,109.64h.872v2.834h4V109.64h.872v6.9h-.872V113.2h-4v3.342h-.872Z" transform="translate(-154.018 -67.775)" fill="#784a2c"/>
    <path id="Trazado_1173" data-name="Trazado 1173" d="M271.3,109.64h5.232v.727h-4.36v2.107h4v.727H272.1v2.543h4.5v.727h-5.377v-6.83Z" transform="translate(-167.663 -67.775)" fill="#784a2c"/>
    <path id="Trazado_1174" data-name="Trazado 1174" d="M290.257,113.01a3.52,3.52,0,0,1,3.56-3.56,3.864,3.864,0,0,1,2.4.872l-.509.582a2.791,2.791,0,0,0-1.817-.654,2.762,2.762,0,0,0-.073,5.522,2.639,2.639,0,0,0,2.034-.872l.509.581a3.507,3.507,0,0,1-2.543,1.017,3.46,3.46,0,0,1-3.56-3.488" transform="translate(-179.426 -67.658)" fill="#784a2c"/>
    <path id="Trazado_1175" data-name="Trazado 1175" d="M311.949,109.64h.872v2.834h4V109.64h.872v6.9h-.872V113.2h-4v3.342h-.872Z" transform="translate(-192.835 -67.775)" fill="#784a2c"/>
    <path id="Trazado_1176" data-name="Trazado 1176" d="M333.262,113.01a3.56,3.56,0,1,1,3.56,3.56,3.565,3.565,0,0,1-3.56-3.56m6.321,0a2.689,2.689,0,1,0-2.689,2.761,2.745,2.745,0,0,0,2.689-2.761" transform="translate(-206.01 -67.658)" fill="#784a2c"/>
    <path id="Trazado_1177" data-name="Trazado 1177" d="M366.943,113.01a3.52,3.52,0,0,1,3.56-3.56,3.864,3.864,0,0,1,2.4.872l-.509.582a2.791,2.791,0,0,0-1.817-.654,2.762,2.762,0,0,0-.073,5.522,2.639,2.639,0,0,0,2.034-.872l.509.581A3.507,3.507,0,0,1,370.5,116.5a3.46,3.46,0,0,1-3.56-3.488" transform="translate(-226.83 -67.658)" fill="#784a2c"/>
    <path id="Trazado_1178" data-name="Trazado 1178" d="M387.684,113.01a3.56,3.56,0,1,1,3.56,3.56,3.614,3.614,0,0,1-3.56-3.56m6.321,0a2.689,2.689,0,1,0-2.689,2.761,2.7,2.7,0,0,0,2.689-2.761" transform="translate(-239.651 -67.658)" fill="#784a2c"/>
    <path id="Trazado_1179" data-name="Trazado 1179" d="M412.231,113.01a3.52,3.52,0,0,1,3.56-3.56,3.864,3.864,0,0,1,2.4.872l-.509.582a2.79,2.79,0,0,0-1.817-.654,2.762,2.762,0,0,0-.073,5.522,2.639,2.639,0,0,0,2.034-.872l.509.581a3.507,3.507,0,0,1-2.543,1.017,3.46,3.46,0,0,1-3.56-3.488" transform="translate(-254.825 -67.658)" fill="#784a2c"/>
    <rect id="Rectángulo_149" data-name="Rectángulo 149" width="0.872" height="6.903" transform="translate(165.689 41.865)" fill="#784a2c"/>
    <path id="Trazado_1180" data-name="Trazado 1180" d="M443.438,109.523h.872l3.415,4.432a8.486,8.486,0,0,1,.727,1.09V109.45h.872v6.9h-.872l-3.342-4.359a8.183,8.183,0,0,1-.8-1.163v5.522h-.872Z" transform="translate(-274.116 -67.658)" fill="#784a2c"/>
    <path id="Trazado_1181" data-name="Trazado 1181" d="M467.449,109.64h.8l3.2,6.9h-.872l-.654-1.308H465.7l-.654,1.308h-.872Zm2.18,4.868-1.235-2.689c-.218-.509-.509-1.162-.509-1.235-.073.073-.291.727-.509,1.235l-1.235,2.689Z" transform="translate(-286.937 -67.775)" fill="#784a2c"/>
    <path id="Trazado_1182" data-name="Trazado 1182" d="M416.272,39.074V34.251h-1.9v22.8h1.9v-11.4A10.448,10.448,0,0,1,426.722,35.2V33.3a12.444,12.444,0,0,0-10.45,5.773" transform="translate(-256.149 -20.585)" fill="#784a2c"/>
    <path id="Trazado_1183" data-name="Trazado 1183" d="M360.043,34.442v4.823a12.349,12.349,0,1,0-10.45,18.927,12.275,12.275,0,0,0,10.45-5.773v4.823h1.9v-22.8h-1.9m-10.45,21.851a10.45,10.45,0,1,1,10.45-10.45,10.448,10.448,0,0,1-10.45,10.45" transform="translate(-208.47 -20.703)" fill="#784a2c"/>
    <rect id="Rectángulo_150" data-name="Rectángulo 150" width="1.9" height="36.54" transform="translate(115.472)" fill="#784a2c"/>
    <rect id="Rectángulo_151" data-name="Rectángulo 151" width="1.9" height="36.54" transform="translate(122.049)" fill="#784a2c"/>
    <path id="Trazado_1184" data-name="Trazado 1184" d="M397.891,5.7h-6.869V0h-1.9V5.7h-44.8V7.6h44.8V36.539h1.9V7.6h6.869Z" transform="translate(-212.848 0)" fill="#784a2c"/>
    <path id="Trazado_1185" data-name="Trazado 1185" d="M250.369,49.2a10.45,10.45,0,0,1-20.243-1.9H252.78a9.814,9.814,0,0,0,.073-1.462,12.237,12.237,0,1,0-.438,3.362ZM240.5,35.393A10.509,10.509,0,0,1,250.953,45.4h-20.9A10.409,10.409,0,0,1,240.5,35.393" transform="translate(-141.035 -20.704)" fill="#784a2c"/>
    <rect id="Rectángulo_152" data-name="Rectángulo 152" width="1.9" height="1.9" transform="translate(182.924 12.716)" fill="#784a2c"/>
    <rect id="Rectángulo_153" data-name="Rectángulo 153" width="1.9" height="19.951" transform="translate(182.924 16.589)" fill="#784a2c"/>
    <path id="Trazado_1186" data-name="Trazado 1186" d="M168.3,36.657H154.852V.191h11.912a7.018,7.018,0,0,1,4.385,12.5,12.158,12.158,0,0,1-2.85,23.97m-11.473-1.9H168.3a10.231,10.231,0,0,0,0-20.462H156.825Zm0-22.435h10.012a5.115,5.115,0,1,0,0-10.231H156.825Z" transform="translate(-95.723 -0.118)" fill="#784a2c"/>
    <path id="Trazado_1187" data-name="Trazado 1187" d="M47.06,7.428V5.577H41.649V.095H39.8V5.577H14.524V.095H12.6V5.577H7.191V.095H5.34V5.577H0V7.428H5.34V12.91H0v1.851H5.34v26.77H0v1.851H5.34v5.482H7.191V43.382H32.679v5.482H34.53V43.382h7.12V41.531H34.53V36.049h7.12V7.428H47.06M12.6,41.6H7.19V36.12H12.6Zm0-7.4H7.19V14.832H12.6Zm0-21.288H7.19V7.428H12.6Zm1.923-5.482H32.679V12.91H14.524Zm0,7.4H32.679V34.2H14.524Zm16.8,26.77h-16.8V36.12H32.679V41.6ZM39.8,34.2H34.6V14.832h5.2Zm0-21.288H34.6V7.428h5.2Z" transform="translate(0 -0.059)" fill="#784a2c"/>
  </g>
</svg>
